<svg width="397" height="401" viewBox="0 0 397 401" fill="none" xmlns="http://www.w3.org/2000/svg">
    <path fill-rule="evenodd" clip-rule="evenodd"
          d="M74.0658 296.075C41.8569 262.238 27.1961 206.909 21.2017 156.97C18.2619 132.478 17.51 110.23 17.4979 94.1003C17.4922 86.1173 17.6673 79.6678 17.8425 75.2292C18.8514 74.3644 20.0283 73.3833 21.3733 72.3035C22.0761 71.7394 22.8251 71.1483 23.6204 70.5328C30.9989 64.8209 42.329 57.0261 57.6684 49.1736C88.2816 33.5028 135.057 17.4982 198.695 17.4982C262.269 17.4982 308.798 33.7879 339.184 49.7302C354.413 57.7201 365.638 65.6516 372.942 71.4639C375.296 73.3372 377.24 74.9887 378.777 76.3486L378.779 76.376C378.955 80.8091 379.133 87.2873 379.127 95.3222C379.115 111.42 378.366 133.624 375.437 158.067C373.56 173.731 369.649 204.875 363.087 191.022C356.525 177.169 336.727 147.953 317.884 127.591C291.657 99.2512 245.037 80.2609 197.331 77.3513C198.082 72.9499 194.926 67.1287 188.614 63.2191C188.012 69.8329 178.202 86.4457 151.141 90.6522C124.082 94.8609 96.9154 114.129 89.6782 126.862C82.441 139.595 45.004 157.693 45.004 157.693C48.0115 161.299 51.3195 161.6 57.9332 162.202C52.6715 165.059 49.9987 166.378 48.6615 167.037L48.6466 167.044C47.6156 167.553 47.3885 167.666 47.3785 167.794C47.3771 167.81 47.3813 167.828 47.3855 167.847L47.3856 167.847L47.3956 167.876L47.4091 167.915C55.526 188.661 65.1465 192.87 75.3688 190.466C78.3763 194.073 84.9901 194.675 91.6039 195.277C91.6039 195.277 88.5985 191.67 89.2001 185.054C89.5883 185.139 90.0857 185.358 90.6972 185.628L90.7067 185.632L90.7238 185.639L90.7277 185.641C93.0543 186.665 96.9768 188.391 102.428 186.258C102.428 186.258 99.4231 182.651 100.025 176.035C100.143 176.096 100.275 176.19 100.422 176.308C100.488 176.36 100.557 176.416 100.628 176.477L100.867 176.68C102.135 177.776 104.448 179.773 109.645 180.246C109.473 178.824 109.593 176.648 110.445 174.863C111.643 169.952 117.549 153.143 121.631 141.524L121.65 141.47L121.757 141.167C122.544 138.928 123.259 136.891 123.855 135.184C128.956 116.655 160.191 118.349 160.191 118.349C160.191 118.349 159.288 132.256 152.372 134.962C150.185 135.817 146.119 136.008 142.987 136.155H142.987L142.971 136.155C142.732 136.167 142.499 136.178 142.272 136.189C136.088 136.49 131.566 137.673 128.956 143.638C126.319 149.664 118.113 172.795 118.113 172.795C118.113 172.795 119.571 172.795 121.029 173.524C121.543 173.78 121.77 173.878 121.93 173.947C122.224 174.073 122.287 174.1 123.475 174.836C136.286 182.768 127.082 208.508 107.84 200.089C107.539 203.397 113.852 207.305 117.16 207.606C113.551 210.613 106.75 209.307 100.623 206.101C100.322 209.409 103.107 212.68 106.636 213.319C103.924 213.734 93.4066 212.115 87.3952 204.898C87.3952 205.086 87.3938 205.288 87.3895 205.505V205.511C87.3589 207.877 87.3041 212.126 92.805 218.729L86.1912 218.127C85.5896 224.741 91.6017 231.958 104.831 233.162C112.92 233.898 122.448 230.386 133.067 226.473L133.071 226.471L133.077 226.469L133.087 226.465C135.42 225.605 137.831 224.63 140.299 223.628L142.288 222.821C143.085 222.495 143.905 222.158 144.744 221.812L144.746 221.811C158.22 216.259 176.833 208.589 190.458 217.023L190.48 217.037C193.635 218.993 210.707 236.225 203.416 274.138C196.125 312.051 156.088 333.434 133.071 332.465C110.054 331.497 93.8367 316.845 74.0658 296.075ZM395.892 68.4705C395.892 68.4705 407.819 232.791 335.461 308.938C263.103 385.084 198.695 401 198.695 401C198.695 401 134.019 384.437 61.3914 308.139C-11.2357 231.842 0.73592 67.1951 0.73592 67.1951C0.73592 67.1951 65.3082 0 198.695 0C332.082 0 395.892 68.4705 395.892 68.4705ZM317.449 244.748C311.494 245.743 305.461 239.345 303.975 230.456C302.489 221.567 306.112 213.554 312.067 212.559C318.023 211.563 324.055 217.961 325.541 226.85C327.028 235.739 323.405 243.752 317.449 244.748ZM252.974 214.267C255.665 222.346 262.236 227.434 267.649 225.631C273.062 223.827 275.269 215.815 272.577 207.736C269.885 199.656 263.315 194.568 257.901 196.372C252.488 198.175 250.282 206.187 252.974 214.267ZM278.356 289.672C270.268 289.999 263.272 279.393 262.729 265.982C262.186 252.57 268.302 241.433 276.39 241.106C284.478 240.778 291.474 251.385 292.017 264.796C292.56 278.207 286.443 289.344 278.356 289.672ZM213.007 308.701C208.918 324.568 213.618 339.496 223.503 342.043C233.389 344.59 244.717 333.792 248.805 317.925C252.893 302.058 248.194 287.13 238.308 284.583C228.423 282.036 217.095 292.834 213.007 308.701ZM275.775 165.972C272.738 169.138 266.57 168.15 262 163.765C257.429 159.38 256.186 153.259 259.223 150.093C262.26 146.927 268.428 147.915 272.999 152.3C277.569 156.685 278.812 162.806 275.775 165.972ZM282.939 137.307C287.181 141.059 292.727 141.719 295.326 138.781C297.925 135.842 296.593 130.419 292.351 126.666C288.109 122.914 282.563 122.254 279.964 125.192C277.365 128.131 278.697 133.555 282.939 137.307ZM262.368 115.004C260.716 118.562 255.213 119.512 250.076 117.127C244.939 114.741 242.115 109.923 243.767 106.365C245.42 102.808 250.923 101.857 256.06 104.243C261.196 106.628 264.021 111.446 262.368 115.004ZM312.117 166.577C316.381 171.819 322.513 173.891 325.813 171.206C329.113 168.521 328.332 162.096 324.068 156.854C319.804 151.613 313.672 149.541 310.371 152.226C307.071 154.91 307.852 161.336 312.117 166.577ZM345.222 208.854C341.028 210.597 335.507 206.907 332.89 200.611C330.274 194.315 331.552 187.798 335.746 186.055C339.94 184.312 345.461 188.002 348.078 194.298C350.695 200.594 349.416 207.111 345.222 208.854ZM285.314 193.742C289.487 200.359 296.572 203.389 301.138 200.51C305.705 197.63 306.024 189.931 301.851 183.314C297.678 176.697 290.594 173.667 286.027 176.547C281.46 179.426 281.141 187.125 285.314 193.742Z"
          fill="#348CEB"/>
</svg>