<?xml version="1.0" encoding="utf-8"?>
<svg width="3322px" height="3322px" viewBox="0 0 3322 3322" version="1.1" xmlns="http://www.w3.org/2000/svg">
    <path d="M2784 261.8L2874.5 27.5L2870.6 13L1975.5 248.8C2070.9 110.7 2038.1 0 2038.1 0C2038.1 0 1752.3 182.6 1536.1 177.7C1479.12 176.435 1432.32 171.495 1388.22 166.84C1265.02 153.835 1162.93 143.059 918.8 220.9C587.3 326.6 493.7 650.9 397.6 720.6C301.5 790.3 0 1017.3 0 1017.3L0.7 1021.4L272.5 934.9C272.5 934.9 198 1005.2 39.6 1218.6C39.6 1218.6 36.8 1216.1 32.2 1211.7L32.4 1213.2C32.4 1213.2 159.7 1407.8 284.6 1371.7C297.1 1368.1 311.3 1362.1 326.8 1354.2C377.1 1382.2 442.7 1409.8 515.2 1417.3C515.2 1417.3 466.1 1360.3 425.2 1295.4C436.3 1288.3 447.6 1280.9 459.1 1273.4L453.8 1277.2L557.3 1315.2L545.9 1217.9C546.2 1217.7 546.6 1217.5 546.9 1217.3L648.6 1254.6L635.9 1166.1C648.8 1159.4 661.7 1153 674.5 1147L780.5 745.9L1218.9 446.8L1184.1 534.5C1095.4 753 928.4 804.7 928.4 804.7L858.7 831.1C806.9 892.3 785.1 907.4 767.3 1113C809.1 1102.5 849 1100 885.1 1109.7C1072.5 1160.1 1137.3 1385.9 1086.9 1448.4C1074.3 1464 1044.2 1490.8 1006.2 1522.1L930.2 1522.1L929.2 1583.7C926.6 1585.7 924 1587.8 921.4 1589.8L844.1 1589.8L843.1 1649.9C836.2 1655.1 829.5 1660.2 822.8 1665.2C750.1 1666.7 658.1 1603.3 658.1 1603.3C658.1 1660.9 706.1 1749.8 706.1 1749.8C706.1 1749.8 709.2 1748.3 714.6 1745.7C709.9 1749.1 707.3 1751 707.3 1751C707.3 1751 901.9 1880.7 1024.4 1832.7C1133.3 1790 1415.3 1567.6 1658.7 1462.4L2395.3 1268.3L2492.4 1016.7L1931.1 1164.6L1931.1 938.6L2589.7 765.1L2686.8 513.5L1931.2 712.6L1931.2 486.6L2784 261.8ZM1621.9 694.8L1447.1 740.9L1388.5 892.5L1569.7 844.8L1624.2 703.5L1621.9 694.8ZM1562.3 1040.2L1743.5 992.5L1798 851.1L1795.7 842.4L1620.9 888.5L1562.3 1040.2ZM1507.5 1043.2L1326.3 1090.9L1384.9 939.2L1559.7 893.1L1562 901.8L1507.5 1043.2Z"
          transform="translate(220.30005 18)" id="Shape" fill="#000000" fill-rule="evenodd" stroke="none"/>
    <g transform="translate(221.75 1661)">
        <path d="M124.5 279.5L129.8 253C144.4 176.2 173.5 109.9 227.9 59.6001C267.6 22.5 325.9 0 392.2 0C434.6 0 466.4 6.6001 486.3 13.1999L449.2 140.4C433.3 135.1 418.7 132.5 397.5 132.5C337.9 132.5 303.4 194.8 292.8 251.7L287.5 279.5L413.4 279.5L390.9 396.1L267.6 396.1L165.6 927.4L0 927.4L102 396.1"
              fill="#000000" stroke="none"/>
        <path d="M310 549.8C308.7 588.2 306 624 304.7 658.4L304.7 658.5L447.9 658.5C446.6 588.3 458.5 462.4 474.4 386.9L545.9 26.5C506.1 10.6001 441.2 0 376.3 0C98 0 0 278.2 0 474.3C0 588.3 46.3 669.1 140.4 669.1C192.1 669.1 254.3 635.9 306 549.8L310 549.8ZM329.9 123.1C339.1 123.1 351.1 124.4 364.3 127.1L321.9 340.3C298 458.2 255.6 532.4 210.6 532.4C169.6 532.4 161.6 491.4 161.6 434.4C163 339.1 221.3 123.1 329.9 123.1Z"
              transform="translate(361.69995 268.99976)" fill="#000000" fill-rule="evenodd" stroke="none"/>
        <path d="M39.7002 516.7C66.2002 531.3 98.0002 544.5 144.4 543.2C192.1 541.9 218.6 511.4 218.6 470.3C218.6 434.5 201.4 409.4 156.3 373.6C100.7 328.6 74.2001 271.6 74.2001 215.9C74.2001 96.5998 166.9 0 314 0C371 0 412 10.6001 435.9 23.8L400.1 144.4C381.6 133.8 351.1 124.5 323.3 124.5C270.3 124.5 237.2 152.3 237.2 196C237.2 229.1 255.7 249 286.2 274.2C359.1 329.9 382.9 393.4 382.9 443.8C382.9 586.9 283.5 666.4 135.1 666.4C75.5 666.4 22.5 649.2 0 633.3L39.7002 516.7L39.7002 516.7Z"
              transform="translate(887.6998 268.90015)" fill="#000000" stroke="none"/>
        <path d="M296.8 0L263.7 174.9L518.1 174.9L496.9 291.5L241.2 291.5L184.2 592.2C180.2 614.7 178.9 634.6 178.9 646.5C178.9 686.2 198.8 700.8 229.3 700.8C241.2 700.8 258.5 700.8 274.3 698.1L254.4 822.6C223.9 830.6 186.8 833.2 155 833.2C55.6999 833.2 6.59998 777.5 6.59998 690.1C6.59998 661 11.9 625.2 18.5 593.4L75.5 291.3L0 291.3L22.5 174.7L98 174.7L124.5 40.8999L296.8 0L296.8 0Z"
              transform="translate(1361.9 104.59985)" fill="#000000" stroke="none"/>
        <path d="M247.7 0C189.4 0 155 54.3 155 102C153.6 151 177.5 189.4 230.5 189.4C279.5 189.4 324.6 152.3 325.9 86.1001C327.2 41.1001 302 0 247.7 0ZM124.5 267.6L0 915.5L165.6 915.5L290.1 267.6L124.5 267.6Z"
              transform="translate(1698.5 11.899902)" fill="#000000" fill-rule="evenodd" stroke="none"/>
        <path d="M124.5 279.5L129.8 253C144.4 176.2 173.5 109.9 227.9 59.6001C267.6 22.5 325.9 0 392.2 0C434.6 0 466.4 6.6001 486.3 13.1999L449.2 140.4C433.3 135.1 418.7 132.5 397.5 132.5C337.9 132.5 303.4 194.8 292.8 251.7L287.5 279.5L479.6 279.5L457.1 396.1L267.6 396.1L165.6 927.4L0 927.4L102 396.1"
              transform="translate(1967.0005 0)" fill="#000000" stroke="none"/>
        <path d="M283.5 0L287.5 311.3C288.8 372.2 290.2 417.3 288.8 465L291.5 465C304.7 412 318 368.3 340.5 299.4L438.6 0L605.5 0L393.5 510.1C329.9 658.5 257 783 177.5 855.9C139.1 891.7 94 919.5 66.2 931.4L0 796.3C29.1001 781.7 59.6001 764.5 86.1001 743.3C123.2 712.8 159 675.7 174.9 639.9C177.5 630.6 180.2 624 178.9 610.8L110 0L283.5 0L283.5 0Z"
              transform="translate(2266.4 279.5)" fill="#000000" stroke="none"/>
    </g>
    <path d="M262.214 0L362.756 0L281.518 427.103Q271.061 481.798 262.214 556.601L180.171 556.601L184.997 499.493L183.389 499.493C171.592 519.333 157.114 534.884 139.955 546.145C122.795 557.405 105.636 563.036 88.4771 563.036Q46.6515 563.036 23.3258 529.656Q0 496.276 0 440.777Q0 370.799 22.9236 306.452Q45.8472 242.105 91.6944 199.476Q137.542 156.846 195.454 156.846C208.859 156.846 220.656 160.063 230.845 166.498L262.214 0ZM2005.21 61.1296L1898.23 94.1075L1884.56 163.28L1837.91 163.28L1825.04 234.866L1870.89 234.866L1836.3 415.842C1831.47 439.972 1829.06 459.813 1829.06 475.363C1829.06 502.174 1836.7 523.221 1851.99 538.504C1867.27 553.786 1889.66 561.427 1919.15 561.427C1947.03 561.427 1967.14 559.282 1979.47 554.992L1991.54 480.189C1985.1 481.262 1975.99 481.798 1964.19 481.798Q1933.63 481.798 1933.63 448.82C1933.63 438.096 1934.7 427.103 1936.84 415.842L1971.43 234.866L2045.43 234.866L2059.1 163.28L1985.1 163.28L2005.21 61.1296ZM587.97 463.298L594.405 539.71C559.55 554.188 522.015 561.427 481.798 561.427C435.682 561.427 401.766 548.021 380.049 521.21Q347.473 480.993 347.473 413.429C347.473 383.937 351.495 354.444 359.539 324.952Q371.604 280.714 394.527 242.508Q417.451 204.302 454.45 180.574Q491.45 156.846 536.493 156.846C570.275 156.846 595.879 167.436 613.307 188.617C630.734 209.798 639.716 235.135 640.252 264.627Q640.252 341.039 586.361 376.027C550.434 399.353 503.247 410.212 444.798 408.603C444.798 428.443 448.016 443.726 454.45 454.45C464.639 473.218 482.602 482.602 508.341 482.602C534.08 482.602 560.623 476.167 587.97 463.298ZM1024.73 563.036L1025.53 563.036C1063.07 563.036 1096.31 549.094 1125.27 521.21C1154.22 493.327 1175.54 459.276 1189.21 419.06C1202.89 378.843 1209.72 337.553 1209.72 295.192C1209.72 202.961 1171.92 156.846 1096.31 156.846Q1039.2 156.846 994.16 197.063Q949.118 237.279 926.596 298.409Q904.075 359.539 904.075 427.103C904.075 443.19 905.817 458.472 909.303 472.95C912.788 487.428 918.687 501.906 926.998 516.384C935.31 530.862 947.777 542.257 964.4 550.569C981.023 558.88 1001.13 563.036 1024.73 563.036ZM1323.13 556.601L1222.59 556.601L1273.27 289.561C1275.95 277.228 1282.65 235.134 1293.37 163.28L1379.44 163.28C1377.29 191.164 1375.15 213.149 1373 229.236L1376.22 229.236C1404.1 180.976 1436.55 156.846 1473.55 156.846C1477.84 156.846 1483.2 157.382 1489.63 158.454L1470.33 259.801C1466.04 258.728 1460.68 258.192 1454.24 258.192C1432.79 258.192 1412.82 269.319 1394.32 291.572C1375.82 313.825 1363.35 341.575 1356.92 374.821L1323.13 556.601ZM1657.74 556.601C1657.74 550.166 1658.14 539.71 1658.94 525.232C1659.75 510.754 1660.42 499.225 1660.96 490.645L1658.54 490.645C1629.59 538.906 1596.07 563.036 1558 563.036C1530.12 563.036 1508.94 552.311 1494.46 530.862C1479.98 509.413 1472.74 480.993 1472.74 445.603Q1472.74 397.342 1485.21 349.484C1493.52 317.579 1506.12 286.746 1523.01 256.986C1539.9 227.225 1563.76 203.095 1594.6 184.595C1625.43 166.096 1660.96 156.846 1701.17 156.846C1740.32 156.846 1774.9 162.208 1804.93 172.932L1760.69 392.516C1749.97 442.385 1744.61 497.08 1744.61 556.601L1657.74 556.601ZM2166.88 563.036L2167.69 563.036C2205.22 563.036 2238.47 549.094 2267.43 521.21C2296.38 493.327 2317.7 459.276 2331.37 419.06Q2351.88 358.734 2351.88 295.192C2351.88 202.961 2314.08 156.846 2238.47 156.846Q2181.36 156.846 2136.32 197.063C2106.29 223.874 2083.77 257.656 2068.75 298.409Q2046.23 359.539 2046.23 427.103C2046.23 443.19 2047.98 458.472 2051.46 472.95C2054.95 487.428 2060.84 501.906 2069.16 516.384C2077.47 530.862 2089.94 542.257 2106.56 550.569C2123.18 558.88 2143.29 563.036 2166.88 563.036ZM2465.29 556.601L2364.75 556.601L2415.42 289.561C2418.1 277.228 2424.81 235.134 2435.53 163.28L2521.6 163.28C2519.45 191.164 2517.31 213.149 2515.16 229.236L2518.38 229.236C2546.26 180.976 2578.7 156.846 2615.7 156.846C2619.99 156.846 2625.36 157.382 2631.79 158.454L2612.49 259.801C2608.2 258.728 2602.83 258.192 2596.4 258.192C2574.95 258.192 2554.98 269.319 2536.48 291.572C2517.98 313.825 2505.51 341.575 2499.07 374.821L2465.29 556.601ZM2615.7 470.537L2591.57 541.319C2610.34 554.724 2637.69 561.427 2673.62 561.427C2719.73 561.427 2756.33 549.63 2783.41 526.036C2810.49 502.442 2824.03 469.196 2824.03 426.299C2824.03 387.69 2804.45 353.372 2765.31 323.343C2745.47 307.793 2735.55 292.242 2735.55 276.692C2735.55 263.286 2740.24 252.696 2749.63 244.921C2759.01 237.145 2771.75 233.258 2787.83 233.258C2803.92 233.258 2819.47 237.279 2834.48 245.323L2856.2 172.128C2839.58 161.94 2814.91 156.846 2782.2 156.846C2738.77 156.846 2703.64 169.581 2676.83 195.052C2650.02 220.522 2636.62 251.757 2636.62 288.757C2636.62 326.293 2653.24 358.198 2686.49 384.473C2711.69 404.313 2724.29 423.886 2724.29 443.19C2724.29 455.523 2720.27 465.711 2712.22 473.754C2704.18 481.798 2693.19 486.088 2679.25 486.624C2657.26 487.16 2636.08 481.798 2615.7 470.537ZM850.184 550.971L856.619 470.537C837.851 476.436 821.764 479.385 808.359 479.385C792.272 479.385 779.805 472.95 770.957 460.081Q757.685 440.777 757.685 406.19C757.685 363.828 768.142 326.159 789.054 293.181C809.967 260.203 834.902 243.714 863.858 243.714C871.365 243.714 881.017 245.055 892.814 247.736L917.748 165.693C905.951 160.867 889.328 158.454 867.879 158.454Q776.989 158.454 716.664 235.671Q656.339 312.887 656.339 420.668C656.339 459.813 666.661 493.059 687.306 520.406Q718.273 561.427 779.402 561.427Q823.641 561.427 850.184 550.971ZM1693.93 234.062L1668.19 363.56C1661.22 399.487 1651.71 427.907 1639.64 448.82C1627.58 469.733 1614.57 480.189 1600.63 480.189C1580.79 480.189 1570.87 460.617 1570.87 421.472C1571.41 399.487 1575.29 374.419 1582.53 346.267C1589.77 318.115 1601.57 291.974 1617.92 267.844C1634.28 243.714 1652.64 231.649 1673.02 231.649C1678.92 231.649 1685.89 232.453 1693.93 234.062ZM217.975 242.91L187.411 407.799C181.512 429.248 173.737 446.675 164.085 460.081C154.433 473.486 143.976 480.189 132.716 480.189C110.73 480.189 99.7378 460.885 99.7378 422.277C99.7378 405.654 101.883 386.752 106.172 365.571C110.462 344.39 116.495 323.88 124.27 304.039Q135.933 274.279 154.031 253.768Q172.128 233.258 193.041 233.258C203.229 233.258 211.541 236.475 217.975 242.91ZM1034.38 486.624L1035.18 486.624C1057.17 486.624 1075.26 463.298 1089.47 416.647C1103.68 369.995 1110.79 325.22 1110.79 282.322C1110.79 249.613 1100.33 233.258 1079.42 233.258C1059.04 233.258 1041.08 255.243 1025.53 299.213C1009.98 343.184 1002.47 384.473 1003.01 423.081C1003.01 435.414 1003.41 445.335 1004.21 452.842C1005.02 460.349 1007.97 467.856 1013.06 475.363C1018.16 482.87 1025.26 486.624 1034.38 486.624ZM2176.54 486.624L2177.34 486.624Q2210.32 486.624 2231.63 416.647C2245.84 369.995 2252.95 325.22 2252.95 282.322Q2252.95 233.258 2221.58 233.258Q2191.01 233.258 2167.69 299.213C2152.14 343.184 2144.63 384.473 2145.17 423.081Q2145.17 441.581 2146.37 452.842C2147.18 460.349 2150.13 467.856 2155.22 475.363C2160.31 482.87 2167.42 486.624 2176.54 486.624ZM551.775 272.67L551.775 273.475Q551.775 303.235 524.025 318.92C505.526 329.376 482.334 334.068 454.45 332.995C460.349 304.576 469.599 281.652 482.2 264.225Q501.102 238.084 523.623 238.084C542.391 238.084 551.775 249.613 551.775 272.67Z"
          transform="translate(229.59973 2758.964)" fill="#000000" fill-rule="evenodd" stroke="none"/>
</svg>